<?xml version="1.0" standalone="no"?>
<!DOCTYPE svg PUBLIC "-//W3C//DTD SVG 20010904//EN"
 "http://www.w3.org/TR/2001/REC-SVG-20010904/DTD/svg10.dtd">
<svg version="1.0" xmlns="http://www.w3.org/2000/svg"
 width="1000.000000pt" height="147.000000pt" viewBox="0 0 1000.000000 147.000000"
 preserveAspectRatio="xMidYMid meet">
<metadata>
Created by potrace 1.15, written by Peter Selinger 2001-2017
</metadata>
<g transform="translate(0.000000,147.000000) scale(0.100000,-0.100000)"
fill="#e60200" stroke="none">
<path d="M675 1464 c-11 -2 -50 -11 -87 -20 -261 -59 -469 -238 -556 -476 -25
-68 -27 -84 -27 -233 0 -149 2 -165 27 -233 87 -238 287 -413 552 -482 112
-28 335 -28 456 0 97 24 223 81 293 135 l47 36 0 319 0 319 -270 3 c-149 2
-269 0 -268 -3 2 -3 30 -65 63 -137 l60 -132 68 0 67 0 0 -106 0 -105 -45 -20
c-151 -67 -357 -62 -513 12 -90 43 -181 135 -213 215 -20 50 -24 77 -24 179 0
115 1 123 32 188 57 120 169 204 323 243 100 25 282 15 378 -20 40 -15 89 -37
109 -49 l36 -21 50 54 c27 30 70 79 95 109 l46 53 -24 20 c-44 35 -176 97
-267 124 -75 23 -111 27 -238 30 -82 1 -159 1 -170 -2z"/>
<path d="M2275 1454 c-308 -69 -526 -263 -602 -536 -20 -75 -23 -279 -4 -348
42 -156 115 -276 225 -370 90 -77 161 -117 279 -159 l102 -36 190 0 c209 0
242 6 383 71 227 104 388 303 427 528 19 111 19 171 0 280 -47 270 -251 477
-550 557 -108 29 -348 36 -450 13z m332 -289 c225 -43 368 -189 380 -388 12
-194 -78 -349 -253 -433 -143 -68 -305 -79 -464 -28 -205 64 -320 213 -320
414 1 128 36 217 120 301 122 123 327 174 537 134z"/>
<path d="M5477 1460 c-201 -36 -404 -153 -511 -294 -98 -130 -140 -257 -140
-426 0 -134 12 -195 64 -305 89 -191 239 -320 457 -396 l98 -34 195 0 c188 0
198 1 275 28 144 51 230 104 331 202 80 78 98 102 137 185 75 155 95 314 61
478 -18 92 -76 217 -133 289 -87 108 -254 211 -416 254 -89 24 -331 35 -418
19z m298 -295 c195 -37 331 -149 371 -305 25 -96 15 -221 -24 -304 -86 -184
-321 -297 -553 -267 -255 33 -405 158 -441 368 -33 197 57 374 233 459 56 27
86 36 194 58 47 9 149 5 220 -9z"/>
<path d="M7305 1454 c-225 -50 -424 -184 -527 -355 -127 -210 -126 -519 3
-735 70 -117 237 -255 367 -304 124 -47 199 -60 346 -60 164 0 263 19 383 75
206 95 350 256 412 460 34 113 35 294 3 411 -53 188 -179 335 -367 429 -133
67 -220 87 -400 91 -110 3 -169 -1 -220 -12z m331 -289 c161 -31 294 -125 349
-247 52 -115 43 -287 -20 -393 -120 -203 -403 -292 -665 -209 -205 64 -320
213 -320 414 1 128 36 217 120 301 122 123 327 174 536 134z"/>
<path d="M3510 1285 l0 -145 344 -2 344 -3 -82 -91 c-44 -50 -137 -155 -206
-234 -285 -328 -415 -475 -422 -478 -4 -2 -8 -71 -8 -153 l0 -149 575 0 575 0
0 145 0 145 -385 2 -384 3 359 410 359 410 1 143 0 142 -535 0 -535 0 0 -145z"/>
<path d="M8670 735 l0 -695 140 0 140 0 0 244 0 244 338 4 c313 4 342 6 403
26 132 44 221 121 277 239 25 54 27 67 27 188 0 125 -1 132 -32 197 -38 81
-109 156 -183 193 -100 51 -146 55 -647 55 l-463 0 0 -695z m981 378 c45 -29
59 -59 59 -134 0 -72 -19 -112 -63 -136 -28 -16 -69 -18 -364 -21 l-333 -3 0
161 0 161 333 -3 c323 -3 333 -4 368 -25z"/>
</g>
</svg>
